<?xml version="1.0" encoding="UTF-8"?>
<svg id="Layer_2" data-name="Layer 2" xmlns="http://www.w3.org/2000/svg" viewBox="0 0 362.49 673.71">
  <defs>
    <style>
      .cls-1 {
        fill: #00bfa5;
      }

      .cls-2 {
        fill: #f2f2f2;
      }
    </style>
  </defs>
  <g id="Layer_1-2" data-name="Layer 1">
    <g>
      <g>
        <path class="cls-2" d="M270.07,470.71l-50.73,10.52-7.35,35.02c-2.59,12.37-5.53,24.2-10.81,35.69-15.12,33.16-43.15,44.84-71.98,46.18-37.04,1.72-71.17-15.77-71.86-62.44-.29-17.96,1.81-35.21,5.29-54.22l-43.14-10.39,12.52-57.47,77.15.04c-5.46,30.62-10.44,59.81-14.37,89.88-1,7.68-1.15,14.81-1.08,22.18,2.59,28.25,40.14,30.25,59.47,18.84,7.88-5.02,14.84-12.08,17.14-22.24l24.91-108.78,81.46.05-6.63,57.14Z"/>
        <path class="cls-2" d="M125.22,673.57c-31.22,1.39-67.8-7.49-91.98-30.33l21.54-21.61,19.8-19.75c12.09,5.83,23.31,8.99,36.22,9.99,21.48,2.02,43.48-1.91,64.91-9.97l32.43,42.8c-26.61,18.57-54.73,28.19-82.92,28.86Z"/>
        <path class="cls-2" d="M224.1,632.7l-33.11-43.68c9.23-9.32,16.37-18.76,22.62-30.45l43.51,12.93c-6.79,22.64-17.75,42.44-33.01,61.19Z"/>
        <path class="cls-2" d="M62.06,589.15l-43.72,42.23c-9.8-16.74-16.2-35.3-18.33-55.75l47.32-16.05c3.17,11.08,7.93,19.34,14.74,29.57Z"/>
        <path class="cls-2" d="M252.46,546.62l-34.43-6.26c4.24-16.35,7.22-31.61,9.78-48.3l42.18-4.19c-.9,20.97-4.08,39.8-8.33,60.23l-9.21-1.47Z"/>
        <path class="cls-2" d="M46.59,540.18l-43.38,11.55c-.37-14.12.91-28.36,2.85-42.7l2.71-19.99,41.83,3.51c-1.86,15.75-3.46,30.47-4.01,47.63Z"/>
      </g>
      <g>
        <path class="cls-1" d="M262.51,76.33c-33.15-19.39-73.88-21.94-109.54-5.82-10.53-16.03-21.01-31.05-32.78-46.6,18.54-10.99,38.05-18.04,59.09-21.55,42.72-7.42,86.47,2.83,121.35,28.65l-19.98,23.24-18.15,22.09Z"/>
        <path class="cls-1" d="M63.04,286.72l-39.72,15.8c-4.89-16.72-8.61-32.55-11.1-49.7l72.23-16.79c2.66,4.79,4.99,10.33,8.25,15.01l12.51,17.96-42.18,17.72Z"/>
        <path class="cls-1" d="M79.79,218.78l-66.5,13.24c-.93-20.11,1.4-39.27,4.79-58.87l59.81,1.73c-.81,14.68-.53,28.6,1.9,43.9Z"/>
        <path class="cls-1" d="M295.25,350.74l-63.65-29.83c-4.28-2.01-8.31-3.9-12.08-6.44l-13.97-16.55,39.5-11.31,11.03,7.67,54.78,34.05-15.6,22.4Z"/>
        <path class="cls-1" d="M297.67,118.38c-6.22-13.36-14.66-24.06-24.82-34.39l33.73-31.39,8.89-9.09c13.57,14.93,24.81,32.41,32.38,52.61l-50.19,22.25Z"/>
        <path class="cls-1" d="M321.64,315.47c-8.09-4.71-15.5-9.45-23.29-14.57l-35.13-23.12c9.66-9.45,17.9-17.83,25.9-28.05l55.73,19.84c-5.72,16.18-13.46,30.31-23.2,45.9Z"/>
        <path class="cls-1" d="M140.44,76.63c-12.35,8.62-21.4,17.65-31.82,28.43l-46.67-29.58c13.01-15.51,27.25-28.97,42.96-42.15l35.53,43.31Z"/>
        <path class="cls-1" d="M127.79,312.21c-8.6,1.51-16.25,3.01-24.62,4.93l-69.68,16-3.21-17.27,88.81-35.76c10.7,5.53,20.75,9.51,32.77,13.99l-24.07,18.11Z"/>
        <path class="cls-1" d="M81.17,156.76l-56.16-7.89c5.02-19.53,13.32-37.86,24.47-55.24l48.3,24.36c-8.06,12.47-12.94,23.94-16.62,38.77Z"/>
        <path class="cls-1" d="M349.97,251.01l-53.24-17.23c5.59-14.35,9.48-27.8,12.11-41.98l53.6,4.52c-2.51,19.24-6.35,36.6-12.47,54.69Z"/>
        <path class="cls-1" d="M334.17,174.41l-23.78.89c-.45-14.16-2.22-27.59-5.02-41.75l49.72-15.03c4.84,18.1,7.67,36.71,7.38,55.36l-28.3.53Z"/>
        <path class="cls-1" d="M213.88,378.13l-22.18-2.92c-27.4-3.61-53.74-3.11-81.74.56l26.02-27.9,62.46,3.57,15.45,26.7Z"/>
        <polygon class="cls-1" points="104.5 355.98 38.26 372.51 34.15 348.18 108.91 328.21 104.5 355.98"/>
        <path class="cls-1" d="M208.56,327.71l9.7,13.39c-31.31-4.23-61.04-6.31-93.24-6.73l36.05-27.02,34.71,2.59c4.36,6.49,8.3,11.6,12.77,17.77Z"/>
        <polygon class="cls-1" points="289.7 361.17 277.83 383.77 226.17 362.8 232.18 334.15 260.15 346.96 289.7 361.17"/>
        <path class="cls-1" d="M89.43,187.09c0-15.63,2.96-30.47,8.88-44.53s13.88-26.23,23.87-36.53c9.99-10.28,21.77-18.49,35.34-24.61,13.57-6.12,27.88-9.18,42.93-9.18,13.82,0,26.77,2.54,38.86,7.62,12.09,5.08,22.45,12.05,31.09,20.9,8.63,8.86,15.48,19.4,20.54,31.64,5.06,12.24,7.59,25.39,7.59,39.46,0,15.63-2.96,30.41-8.88,44.34-5.92,13.93-13.88,26.11-23.87,36.52-9.99,10.42-21.71,18.69-35.16,24.81-13.45,6.12-27.7,9.18-42.74,9.18-14.06,0-27.15-2.54-39.23-7.62-12.09-5.08-22.45-12.04-31.09-20.9-8.64-8.85-15.49-19.4-20.54-31.64-5.06-12.24-7.59-25.39-7.59-39.46ZM189.18,251.01c18.87,0,35.05-7.71,48.53-23.14,13.48-15.42,20.22-33.77,20.22-55.05,0-18.79-5.56-34.3-16.68-46.54-11.12-12.23-25.28-18.35-42.47-18.35-18.88,0-35.06,7.71-48.53,23.14-13.48,15.42-20.22,33.77-20.22,55.05,0,18.8,5.56,34.31,16.68,46.54,11.12,12.23,25.28,18.35,42.47,18.35Z"/>
      </g>
    </g>
  </g>
</svg>