<?xml version="1.0" encoding="UTF-8"?>
<svg id="Layer_2" data-name="Layer 2" xmlns="http://www.w3.org/2000/svg" viewBox="0 0 797.87 300.02">
  <defs>
    <style>
      .cls-1 {
        fill: #00eabd;
      }

      .cls-2 {
        fill: #f2f2f2;
      }
    </style>
  </defs>
  <g id="Layer_1-2" data-name="Layer 1">
    <g>
      <g>
        <path class="cls-1" d="M608.21,287.48c1.54,0,2.82.53,3.86,1.59,1.04,1.06,1.56,2.36,1.56,3.9,0,1.85-.7,3.49-2.1,4.91-1.4,1.42-3.01,2.13-4.81,2.13-1.58,0-2.9-.53-3.97-1.59-1.06-1.06-1.59-2.36-1.59-3.9,0-1.9.7-3.55,2.1-4.95s3.05-2.1,4.95-2.1Z"/>
        <path class="cls-1" d="M638.72,290.53c1.4,0,2.7-.28,3.9-.85,1.2-.56,2.41-1.43,3.63-2.61l5.56,7.12c-1.99,1.9-4.2,3.34-6.64,4.34-2.44.99-4.97,1.49-7.59,1.49s-4.79-.43-6.91-1.29c-2.12-.86-3.95-2.03-5.49-3.52-1.54-1.49-2.75-3.29-3.63-5.39-.88-2.1-1.32-4.37-1.32-6.81,0-2.8.52-5.43,1.56-7.9,1.04-2.46,2.45-4.61,4.24-6.44,1.78-1.83,3.89-3.28,6.3-4.34,2.42-1.06,4.98-1.59,7.69-1.59,3.12,0,6,.67,8.64,2,2.64,1.33,4.78,3.15,6.41,5.46l-7.32,6.64c-.99-1.54-2.14-2.68-3.42-3.42-1.29-.75-2.77-1.12-4.44-1.12-2.44,0-4.54.99-6.3,2.98-1.76,1.99-2.64,4.36-2.64,7.12,0,2.44.72,4.41,2.17,5.9,1.45,1.49,3.32,2.24,5.63,2.24Z"/>
        <path class="cls-1" d="M656.14,282.67c0-2.71.54-5.29,1.63-7.73,1.08-2.44,2.54-4.55,4.37-6.34,1.83-1.78,3.99-3.21,6.47-4.27,2.48-1.06,5.11-1.59,7.86-1.59,2.53,0,4.9.44,7.12,1.32,2.21.88,4.11,2.09,5.69,3.63,1.58,1.54,2.84,3.37,3.76,5.49.93,2.12,1.39,4.41,1.39,6.85,0,2.71-.54,5.28-1.63,7.69-1.08,2.42-2.54,4.53-4.37,6.34-1.83,1.81-3.98,3.24-6.44,4.3-2.46,1.06-5.07,1.59-7.83,1.59-2.58,0-4.97-.44-7.19-1.32-2.21-.88-4.11-2.09-5.69-3.63-1.58-1.54-2.84-3.37-3.76-5.49-.93-2.12-1.39-4.41-1.39-6.85ZM674.64,290.47c2.53,0,4.7-.98,6.51-2.95,1.81-1.97,2.71-4.3,2.71-7.02,0-2.39-.75-4.37-2.24-5.93s-3.39-2.34-5.69-2.34c-2.53,0-4.7.98-6.51,2.95-1.81,1.97-2.71,4.3-2.71,7.02,0,2.4.75,4.37,2.24,5.93s3.39,2.34,5.69,2.34Z"/>
        <path class="cls-1" d="M702.91,287.48c1.54,0,2.82.53,3.86,1.59,1.04,1.06,1.56,2.36,1.56,3.9,0,1.85-.7,3.49-2.1,4.91-1.4,1.42-3.01,2.13-4.81,2.13-1.58,0-2.9-.53-3.97-1.59-1.06-1.06-1.59-2.36-1.59-3.9,0-1.9.7-3.55,2.1-4.95,1.4-1.4,3.05-2.1,4.95-2.1Z"/>
        <path class="cls-1" d="M730.9,263.42l-4.34,20.34c-.41,2.03-.11,3.67.88,4.91.99,1.24,2.48,1.86,4.47,1.86,1.26,0,2.44-.23,3.52-.68,1.08-.45,2.08-1.11,2.98-1.97l5.15-24.47h10.78l-7.59,35.86h-10.78l.47-2.24c-1.4.9-2.89,1.59-4.47,2.07-1.58.47-3.21.71-4.88.71-2.12,0-4.01-.38-5.66-1.15-1.65-.77-2.98-1.81-4-3.12-1.02-1.31-1.69-2.89-2.03-4.74-.34-1.85-.28-3.86.17-6.03l4.54-21.35h10.78Z"/>
        <path class="cls-1" d="M753.41,299.28l10.1-47.45,11.25-2.37-6.24,29.28,16.27-15.32h13.08l-20.06,18.03,13.49,17.83h-12.95l-10.91-15.39-3.25,15.39h-10.78Z"/>
      </g>
      <g>
        <path class="cls-2" d="M100.77,230.55l15.47-18.29c5.27,4.1,10.4,7.18,15.38,9.23,4.98,2.05,9.99,3.08,15.03,3.08,4.1,0,7.38-.7,9.85-2.11s3.69-3.22,3.69-5.45c0-1.52-.7-2.84-2.11-3.96-1.41-1.11-3.46-1.96-6.15-2.55l-17.76-3.87c-7.62-1.64-13.48-4.72-17.58-9.23-4.1-4.51-6.15-10.11-6.15-16.79,0-9.61,3.4-17.2,10.2-22.77,6.8-5.56,16.06-8.35,27.78-8.35,7.74,0,15.18,1.23,22.33,3.69,7.15,2.46,13.42,5.92,18.81,10.37l-15.3,17.23c-4.69-3.4-9.41-5.98-14.15-7.74-4.75-1.76-9.29-2.64-13.63-2.64-3.52,0-6.27.59-8.26,1.76-2,1.17-2.99,2.87-2.99,5.1,0,1.76.73,3.2,2.2,4.31,1.46,1.12,3.9,2.02,7.3,2.72l17.76,3.87c7.74,1.64,13.74,4.69,18.02,9.14,4.28,4.46,6.42,9.85,6.42,16.18,0,4.57-1.03,8.85-3.08,12.83-2.05,3.99-4.9,7.41-8.53,10.29-3.63,2.87-7.91,5.13-12.83,6.77s-10.26,2.46-16,2.46c-8.79,0-17.26-1.38-25.41-4.13-8.15-2.75-14.92-6.47-20.31-11.16Z"/>
        <path class="cls-2" d="M399.83,175.87c-2.17-5.28-5.09-9.85-8.79-13.72-3.69-3.86-8.06-6.91-13.1-9.14-5.04-2.22-10.49-3.34-16.35-3.34-3.63,0-7.15.44-10.55,1.32-3.4.88-6.68,2.2-9.84,3.96l.88-4.05h-27.61l-27.59,130.05,29.28-6.18,8.33-38.77c3.52,2.93,7.53,5.19,12.05,6.77,4.51,1.58,9.34,2.37,14.5,2.37,7.15,0,13.92-1.37,20.31-4.13,6.39-2.75,11.9-6.47,16.53-11.16,4.63-4.69,8.32-10.2,11.07-16.53,2.76-6.33,4.14-13.13,4.14-20.4,0-6.09-1.09-11.78-3.26-17.05ZM368.36,213.41c-4.98,4.98-11.11,7.47-18.37,7.47-4.22,0-8.12-.79-11.7-2.37-3.57-1.59-6.47-3.72-8.7-6.42l6.86-32.35c2.46-2,5.16-3.49,8.09-4.49,2.93-.99,6.03-1.49,9.32-1.49,6.33,0,11.57,2.08,15.73,6.24,4.16,4.16,6.24,9.29,6.24,15.39,0,7.03-2.49,13.04-7.47,18.02Z"/>
        <path class="cls-2" d="M511.48,175.87c-2.17-5.28-5.1-9.85-8.79-13.72-3.69-3.86-8.06-6.91-13.1-9.14-5.04-2.22-10.49-3.34-16.35-3.34-3.63,0-7.15.44-10.55,1.32-3.4.88-6.68,2.2-9.84,3.96l.87-4.05h-27.6l-27.59,130.07,29.27-6.17,8.34-38.8c3.52,2.93,7.53,5.19,12.05,6.77,4.51,1.58,9.34,2.37,14.5,2.37,7.15,0,13.92-1.37,20.31-4.13,6.39-2.75,11.89-6.47,16.53-11.16,4.63-4.69,8.32-10.2,11.07-16.53,2.76-6.33,4.14-13.13,4.14-20.4,0-6.09-1.09-11.78-3.26-17.05ZM480.01,213.41c-4.98,4.98-11.11,7.47-18.37,7.47-4.22,0-8.12-.79-11.7-2.37-3.57-1.59-6.47-3.72-8.7-6.42l6.86-32.35c2.46-2,5.15-3.49,8.09-4.49,2.92-.99,6.03-1.49,9.32-1.49,6.32,0,11.57,2.08,15.73,6.24,4.16,4.16,6.24,9.29,6.24,15.39,0,7.03-2.49,13.04-7.47,18.02Z"/>
        <path class="cls-2" d="M573.46,114.68l-27.43,129.23h-27.96l26.2-123.08,29.19-6.15Z"/>
        <path class="cls-2" d="M610.91,150.9l-19.69,93.01h-27.96l19.69-93.01h27.96ZM600.36,142.29c-3.87,0-7.12-1.32-9.76-3.96s-3.96-5.89-3.96-9.76c0-4.69,1.73-8.79,5.19-12.31,3.46-3.52,7.47-5.27,12.05-5.27,3.87,0,7.12,1.32,9.76,3.96s3.96,5.89,3.96,9.76c0,4.69-1.73,8.79-5.19,12.31-3.46,3.52-7.47,5.27-12.04,5.27Z"/>
        <path class="cls-2" d="M698.11,233.71c-5.86,4.34-11.63,7.45-17.32,9.32-5.69,1.87-12.05,2.81-19.08,2.81s-13.3-1.11-19.16-3.34c-5.86-2.23-10.9-5.3-15.12-9.23-4.22-3.93-7.53-8.62-9.93-14.07-2.4-5.45-3.6-11.4-3.6-17.85,0-7.03,1.35-13.71,4.04-20.04,2.69-6.33,6.36-11.84,10.99-16.53,4.63-4.69,10.05-8.41,16.26-11.16,6.21-2.75,12.77-4.13,19.69-4.13,6.33,0,12.13,1.12,17.41,3.34,5.27,2.23,9.79,5.33,13.54,9.32,3.75,3.99,6.68,8.76,8.79,14.33,2.11,5.57,3.16,11.63,3.16,18.2,0,1.29-.06,2.76-.18,4.4-.12,1.64-.41,4.28-.88,7.91h-65.06c1.41,4.69,4.07,8.44,8,11.25,3.93,2.81,8.7,4.22,14.33,4.22,3.63,0,7.03-.55,10.2-1.67,3.16-1.11,5.92-2.72,8.26-4.84l15.65,17.76ZM663.65,172.88c-4.57,0-8.65,1.32-12.22,3.96-3.58,2.64-6.3,6.13-8.18,10.46h38.33c-1.17-4.34-3.37-7.82-6.59-10.46-3.23-2.64-7.01-3.96-11.34-3.96Z"/>
        <path class="cls-2" d="M711.48,243.91l19.69-93.01h27.96l-1.76,8.26c3.4-3.28,7.12-5.77,11.16-7.47,4.04-1.7,8.29-2.55,12.75-2.55,2.58,0,4.95.26,7.12.79,2.17.53,3.84,1.26,5.01,2.2l-5.1,24.62c-1.17-.94-3.2-1.76-6.07-2.46-2.87-.7-5.6-1.06-8.17-1.06-4.22,0-8.24.94-12.05,2.81-3.81,1.88-7.12,4.46-9.93,7.74l-12.66,60.13h-27.96Z"/>
        <g>
          <path class="cls-2" d="M295.87,171.77l-18.51,3.84-2.68,12.78c-.94,4.51-2.02,8.83-3.94,13.03-5.52,12.1-15.75,16.36-26.27,16.85-13.52.63-25.97-5.76-26.22-22.79-.11-6.55.66-12.85,1.93-19.79l-15.74-3.79,4.57-20.97,28.15.02c-1.99,11.17-3.81,21.83-5.24,32.8-.37,2.8-.42,5.4-.4,8.09.95,10.31,14.65,11.04,21.7,6.87,2.87-1.83,5.42-4.41,6.26-8.12l9.09-39.7,29.73.02-2.42,20.85Z"/>
          <path class="cls-2" d="M243.01,245.79c-11.39.51-24.74-2.73-33.56-11.07l7.86-7.88,7.23-7.21c4.41,2.13,8.51,3.28,13.22,3.64,7.84.74,15.87-.7,23.69-3.64l11.83,15.62c-9.71,6.77-19.97,10.29-30.26,10.53Z"/>
          <path class="cls-2" d="M279.09,230.88l-12.08-15.94c3.37-3.4,5.97-6.84,8.25-11.11l15.88,4.72c-2.48,8.26-6.48,15.49-12.05,22.33Z"/>
          <path class="cls-2" d="M219.96,214.99l-15.96,15.41c-3.58-6.11-5.91-12.88-6.69-20.34l17.27-5.86c1.16,4.04,2.89,7.06,5.38,10.79Z"/>
          <path class="cls-2" d="M289.44,199.47l-12.56-2.28c1.55-5.97,2.64-11.53,3.57-17.63l15.39-1.53c-.33,7.65-1.49,14.52-3.04,21.98l-3.36-.54Z"/>
          <path class="cls-2" d="M214.31,197.12l-15.83,4.21c-.13-5.15.33-10.35,1.04-15.58l.99-7.29,15.26,1.28c-.68,5.75-1.26,11.12-1.46,17.38Z"/>
        </g>
      </g>
      <g>
        <path class="cls-1" d="M0,120.48l15.47-18.29c5.27,4.1,10.4,7.18,15.38,9.23,4.98,2.05,9.99,3.08,15.03,3.08,4.1,0,7.38-.7,9.85-2.11,2.46-1.41,3.69-3.22,3.69-5.45,0-1.52-.7-2.84-2.11-3.96-1.41-1.11-3.46-1.96-6.15-2.55l-17.76-3.87c-7.62-1.64-13.48-4.72-17.58-9.23-4.1-4.51-6.15-10.11-6.15-16.79,0-9.61,3.4-17.2,10.2-22.77,6.8-5.57,16.06-8.35,27.78-8.35,7.74,0,15.18,1.23,22.33,3.69,7.15,2.46,13.42,5.92,18.81,10.37l-15.3,17.23c-4.69-3.4-9.41-5.98-14.15-7.74-4.75-1.76-9.29-2.64-13.63-2.64-3.52,0-6.27.59-8.26,1.76-2,1.17-2.99,2.87-2.99,5.1,0,1.76.73,3.19,2.2,4.31,1.46,1.12,3.9,2.02,7.3,2.73l17.76,3.87c7.74,1.64,13.74,4.69,18.02,9.14,4.28,4.46,6.42,9.85,6.42,16.18,0,4.57-1.03,8.85-3.08,12.83-2.05,3.99-4.9,7.42-8.53,10.29-3.63,2.87-7.91,5.13-12.83,6.77-4.92,1.64-10.26,2.46-16,2.46-8.79,0-17.26-1.38-25.41-4.13-8.15-2.75-14.92-6.47-20.31-11.17Z"/>
        <path class="cls-1" d="M90.9,133.85L117.1,10.77l29.19-6.15-8.97,42.02c3.63-2.34,7.5-4.13,11.6-5.36,4.1-1.23,8.32-1.85,12.66-1.85,5.51,0,10.4,1,14.68,2.99,4.28,1.99,7.74,4.69,10.37,8.09,2.64,3.4,4.4,7.5,5.27,12.31.88,4.81.73,10.02-.44,15.65l-11.78,55.38h-27.96l11.25-52.75c1.06-5.27.29-9.52-2.29-12.75-2.58-3.22-6.45-4.84-11.6-4.84-3.28,0-6.3.59-9.06,1.76-2.76,1.17-5.31,2.87-7.65,5.1l-13.54,63.47h-27.96Z"/>
        <path class="cls-1" d="M422.67,123.65c-5.86,4.34-11.63,7.45-17.32,9.32-5.69,1.87-12.05,2.81-19.08,2.81s-13.3-1.12-19.16-3.34c-5.86-2.23-10.9-5.3-15.12-9.23-4.22-3.93-7.53-8.62-9.93-14.07-2.4-5.45-3.6-11.4-3.6-17.85,0-7.03,1.35-13.71,4.04-20.04,2.69-6.33,6.36-11.84,10.99-16.53,4.63-4.69,10.05-8.41,16.26-11.17,6.21-2.75,12.77-4.13,19.69-4.13,6.33,0,12.13,1.12,17.41,3.34,5.27,2.23,9.79,5.33,13.54,9.32,3.75,3.99,6.68,8.76,8.79,14.33,2.11,5.57,3.16,11.63,3.16,18.2,0,1.29-.06,2.76-.18,4.4-.12,1.64-.41,4.28-.88,7.91h-65.06c1.41,4.69,4.07,8.44,8,11.25,3.93,2.81,8.7,4.22,14.33,4.22,3.63,0,7.03-.55,10.2-1.67,3.16-1.11,5.92-2.73,8.26-4.84l15.65,17.76ZM388.21,62.81c-4.57,0-8.65,1.32-12.22,3.96-3.58,2.64-6.3,6.13-8.18,10.46h38.33c-1.17-4.33-3.37-7.82-6.59-10.46-3.23-2.64-7.01-3.96-11.34-3.96Z"/>
        <g>
          <path class="cls-1" d="M293.11,27.85c-12.1-7.08-26.96-8.01-39.97-2.12-3.84-5.85-7.67-11.33-11.96-17.01,6.76-4.01,13.88-6.58,21.56-7.87,15.59-2.71,31.55,1.03,44.28,10.45l-7.29,8.48-6.62,8.06Z"/>
          <path class="cls-1" d="M220.32,104.63l-14.49,5.76c-1.78-6.1-3.14-11.88-4.05-18.14l26.36-6.13c.97,1.75,1.82,3.77,3.01,5.48l4.57,6.56-15.39,6.47Z"/>
          <path class="cls-1" d="M226.43,79.84l-24.27,4.83c-.34-7.34.51-14.33,1.75-21.48l21.82.63c-.29,5.36-.19,10.44.69,16.02Z"/>
          <path class="cls-1" d="M305.05,127.99l-23.23-10.88c-1.56-.73-3.03-1.42-4.41-2.35l-5.1-6.04,14.41-4.13,4.02,2.8,19.99,12.43-5.69,8.17Z"/>
          <path class="cls-1" d="M305.94,43.2c-2.27-4.87-5.35-8.78-9.06-12.55l12.31-11.45,3.25-3.32c4.95,5.45,9.05,11.83,11.82,19.2l-18.31,8.12Z"/>
          <path class="cls-1" d="M314.68,115.12c-2.95-1.72-5.66-3.45-8.5-5.32l-12.82-8.44c3.52-3.45,6.53-6.51,9.45-10.24l20.34,7.24c-2.09,5.91-4.91,11.06-8.47,16.75Z"/>
          <path class="cls-1" d="M248.56,27.96c-4.51,3.14-7.81,6.44-11.61,10.37l-17.03-10.8c4.75-5.66,9.94-10.57,15.68-15.38l12.97,15.8Z"/>
          <path class="cls-1" d="M243.94,113.93c-3.14.55-5.93,1.1-8.98,1.8l-25.43,5.84-1.17-6.3,32.41-13.05c3.9,2.02,7.57,3.47,11.96,5.11l-8.78,6.61Z"/>
          <path class="cls-1" d="M226.93,57.2l-20.49-2.88c1.83-7.13,4.86-13.82,8.93-20.16l17.63,8.89c-2.94,4.55-4.72,8.73-6.06,14.15Z"/>
          <path class="cls-1" d="M325.02,91.6l-19.43-6.29c2.04-5.24,3.46-10.14,4.42-15.32l19.56,1.65c-.92,7.02-2.32,13.36-4.55,19.96Z"/>
          <path class="cls-1" d="M319.26,63.65l-8.68.33c-.16-5.17-.81-10.07-1.83-15.24l18.15-5.48c1.77,6.6,2.8,13.39,2.69,20.2l-10.33.19Z"/>
          <path class="cls-1" d="M275.36,137.98l-8.09-1.07c-10-1.32-19.61-1.14-29.83.2l9.49-10.18,22.79,1.3,5.64,9.74Z"/>
          <polygon class="cls-1" points="235.45 129.9 211.27 135.93 209.77 127.06 237.05 119.77 235.45 129.9"/>
          <path class="cls-1" d="M273.42,119.59l3.54,4.89c-11.43-1.54-22.28-2.3-34.02-2.46l13.16-9.86,12.67.95c1.59,2.37,3.03,4.23,4.66,6.48Z"/>
          <polygon class="cls-1" points="303.03 131.8 298.7 140.04 279.84 132.39 282.04 121.93 292.25 126.61 303.03 131.8"/>
          <path class="cls-1" d="M229.95,68.27c0-5.7,1.08-11.12,3.24-16.25,2.16-5.13,5.06-9.57,8.71-13.33,3.65-3.75,7.94-6.75,12.9-8.98,4.95-2.23,10.17-3.35,15.67-3.35,5.04,0,9.77.93,14.18,2.78,4.41,1.85,8.19,4.4,11.34,7.63,3.15,3.23,5.65,7.08,7.5,11.55,1.85,4.47,2.77,9.27,2.77,14.4,0,5.7-1.08,11.1-3.24,16.18-2.16,5.08-5.06,9.53-8.71,13.33-3.65,3.8-7.92,6.82-12.83,9.05-4.91,2.23-10.11,3.35-15.6,3.35-5.13,0-9.91-.93-14.32-2.78-4.41-1.85-8.19-4.39-11.34-7.63-3.15-3.23-5.65-7.08-7.5-11.55-1.85-4.47-2.77-9.27-2.77-14.4ZM266.35,91.6c6.89,0,12.79-2.81,17.71-8.44,4.92-5.63,7.38-12.32,7.38-20.09,0-6.86-2.03-12.52-6.09-16.98-4.06-4.46-9.22-6.7-15.5-6.7-6.89,0-12.79,2.81-17.71,8.44-4.92,5.63-7.38,12.32-7.38,20.09,0,6.86,2.03,12.52,6.09,16.98,4.06,4.46,9.22,6.7,15.5,6.7Z"/>
        </g>
      </g>
    </g>
  </g>
</svg>